<svg xmlns="http://www.w3.org/2000/svg" viewBox="0 0 256 256" role="img" aria-labelledby="t d"><title id="t">S1GK icon</title><desc id="d">S1GK icon mark.</desc><defs><linearGradient id="c" x1="0" x2="1"><stop stop-color="#fff"/><stop offset=".5" stop-color="#c0c0c0"/><stop offset="1" stop-color="#fff"/></linearGradient><filter id="g"><feGaussianBlur stdDeviation="4" result="b"/><feMerge><feMergeNode in="b"/><feMergeNode in="SourceGraphic"/></feMerge></filter></defs><circle cx="128" cy="128" r="112" fill="#050505" stroke="#39ff14" stroke-width="5"/><path fill="url(#c)" d="M48 75h110l-16 31H82l-9 17h55c27 0 40 17 29 41-10 23-30 35-61 35H30l15-31h66l8-15H70c-29 0-41-18-29-43z"/><path fill="#39ff14" filter="url(#g)" d="M166 51h36l-39 154h-39z" transform="skewX(-12)"/><circle cx="194" cy="42" r="13" fill="#39ff14" filter="url(#g)"/><path fill="#39ff14" d="M174 67c22 10 31 32 20 54-7 14-18 24-34 29l-7-25c10-3 16-8 20-16 6-12 1-22-14-27z"/></svg>